<svg width="25" height="24" viewBox="0 0 25 24" fill="none" xmlns="http://www.w3.org/2000/svg">
<rect x="4.5" y="5" width="16" height="14" fill="#9098A1"/>
<path fill-rule="evenodd" clip-rule="evenodd" d="M21.0657 13.3919C21.7012 14.1184 22.5 15.1983 22.5 16.5279C22.5 18.4455 20.9455 20 19.0279 20L5.97213 20C4.05453 20 2.5 18.4455 2.5 16.5279C2.5 15.1983 3.29877 14.1184 3.93426 13.3919C4.25845 13.0213 4.5 12.5625 4.5 12C4.5 11.4375 4.25845 10.9787 3.93426 10.6081C3.29876 9.88156 2.5 8.80171 2.5 7.47213C2.5 5.55454 4.05452 4.00002 5.97211 4.00002L19.0279 4C20.9455 4 22.5 5.55452 22.5 7.47213C22.5 8.80171 21.7012 9.88156 21.0657 10.6081C20.7416 10.9787 20.5 11.4375 20.5 12C20.5 12.5625 20.7416 13.0213 21.0657 13.3919ZM20.5 16.5279C20.5 15.9847 20.1579 15.3918 19.5604 14.7087C19.0236 14.095 18.5 13.187 18.5 12C18.5 10.813 19.0236 9.90498 19.5604 9.29129C20.1579 8.60822 20.5 8.01531 20.5 7.47213C20.5 6.65909 19.8409 6 19.0279 6L5.97211 6.00002C5.15909 6.00002 4.5 6.65911 4.5 7.47213C4.5 8.01531 4.84211 8.60822 5.43962 9.29129C5.97642 9.90497 6.5 10.813 6.5 12C6.5 13.187 5.97642 14.095 5.43962 14.7087C4.84212 15.3918 4.5 15.9847 4.5 16.5279C4.5 17.3409 5.15909 18 5.97213 18L19.0279 18C19.8409 18 20.5 17.3409 20.5 16.5279Z" fill="#9098A1"/>
<path fill-rule="evenodd" clip-rule="evenodd" d="M10.5 11C9.94772 11 9.5 10.5523 9.5 10C9.5 9.44772 9.94772 9 10.5 9C11.0523 9 11.5 9.44772 11.5 10C11.5 10.5523 11.0523 11 10.5 11ZM15.2071 10.7071L11.2071 14.7071C10.8166 15.0976 10.1834 15.0976 9.79289 14.7071C9.40237 14.3166 9.40237 13.6834 9.79289 13.2929L13.7929 9.29289C14.1834 8.90237 14.8166 8.90237 15.2071 9.29289C15.5976 9.68342 15.5976 10.3166 15.2071 10.7071ZM13.5 14C13.5 14.5523 13.9477 15 14.5 15C15.0523 15 15.5 14.5523 15.5 14C15.5 13.4477 15.0523 13 14.5 13C13.9477 13 13.5 13.4477 13.5 14Z" fill="white"/>
</svg>
