<svg width="20" height="20" viewBox="0 0 20 20" fill="none" xmlns="http://www.w3.org/2000/svg">
<mask id="mask0_35_8716" style="mask-type:alpha" maskUnits="userSpaceOnUse" x="2" y="1" width="16" height="18">
<path fill-rule="evenodd" clip-rule="evenodd" d="M15 3.33329H15.8333C16.75 3.33329 17.5 4.08329 17.5 4.99996V16.6666C17.5 17.5833 16.75 18.3333 15.8333 18.3333H4.16667C3.24167 18.3333 2.5 17.5833 2.5 16.6666V4.99996C2.5 4.08329 3.24167 3.33329 4.16667 3.33329H5V2.49996C5 2.04163 5.375 1.66663 5.83333 1.66663C6.29167 1.66663 6.66667 2.04163 6.66667 2.49996V3.33329H13.3333V2.49996C13.3333 2.04163 13.7083 1.66663 14.1667 1.66663C14.625 1.66663 15 2.04163 15 2.49996V3.33329ZM6.66667 9.16663H13.3333C13.7917 9.16663 14.1667 9.54163 14.1667 9.99996C14.1667 10.4583 13.7917 10.8333 13.3333 10.8333H6.66667C6.20833 10.8333 5.83333 10.4583 5.83333 9.99996C5.83333 9.54163 6.20833 9.16663 6.66667 9.16663ZM15 16.6666H5C4.54167 16.6666 4.16667 16.2916 4.16667 15.8333V7.49996H15.8333V15.8333C15.8333 16.2916 15.4583 16.6666 15 16.6666ZM6.66667 12.5H10.8333C11.2917 12.5 11.6667 12.875 11.6667 13.3333C11.6667 13.7916 11.2917 14.1666 10.8333 14.1666H6.66667C6.20833 14.1666 5.83333 13.7916 5.83333 13.3333C5.83333 12.875 6.20833 12.5 6.66667 12.5Z" fill="black"/>
</mask>
<g mask="url(#mask0_35_8716)">
<rect width="20" height="20" fill="#FFB800"/>
</g>
</svg>
