<svg width="25" height="24" viewBox="0 0 25 24" fill="none" xmlns="http://www.w3.org/2000/svg">
<mask id="mask0_2180_12172" style="mask-type:alpha" maskUnits="userSpaceOnUse" x="3" y="3" width="19" height="18">
<path fill-rule="evenodd" clip-rule="evenodd" d="M10.1549 3.22999L15.1549 4.97999C15.3849 5.05999 15.6249 5.04999 15.8449 4.96999L18.7749 3.82999C20.0849 3.31999 21.4949 4.27999 21.4949 5.68999V17.54C21.4949 18.4 20.9449 19.17 20.1349 19.44L16.1449 20.78C15.7249 20.92 15.2649 20.92 14.8449 20.77L9.84488 19.02C9.62488 18.94 9.37488 18.94 9.15488 19.03L6.22488 20.17C4.91488 20.68 3.50488 19.72 3.50488 18.31V6.45999C3.50488 5.59999 4.05488 4.83999 4.86488 4.55999L8.85488 3.21999C9.27488 3.07999 9.73488 3.07999 10.1549 3.22999ZM9.50488 16.78L15.5049 18.89V7.21999L9.50488 5.10999V16.78Z" fill="black"/>
</mask>
<g mask="url(#mask0_2180_12172)">
<rect x="0.5" width="24" height="24" fill="#9098A1"/>
</g>
</svg>
