<svg width="19" height="20" viewBox="0 0 19 20" fill="none" xmlns="http://www.w3.org/2000/svg">
<path d="M15.82 13.9084L6.98317 5.07153C7.31627 5.40464 7.31627 5.94474 6.98317 6.27784C6.65006 6.61095 6.10996 6.61095 5.77686 6.27784L8.74552 9.24651C9.07863 9.57962 9.07863 10.1197 8.74552 10.4528C8.41242 10.7859 7.87232 10.7859 7.53921 10.4528L13.4389 16.3525L15.82 13.9084Z" fill="#FF1843" fill-opacity="0.2"/>
<path d="M6.40193 12.5698C6.693 12.8609 6.693 13.3329 6.40193 13.6238C6.11782 13.908 5.66252 13.9125 5.37014 13.6418L4.6332 12.9061C4.92426 13.197 4.92426 13.669 4.6332 13.9601C4.34749 14.2459 3.88827 14.2494 3.59619 13.9739L7.99136 18.369L10.225 16.3868L6.40193 12.5698Z" fill="#FF1843" fill-opacity="0.2"/>
<path d="M12.7603 3.32141C13.0514 3.61248 13.0514 4.08431 12.7603 4.37538C12.4762 4.65963 12.0209 4.66412 11.7285 4.39335L10.9917 3.65756C11.2827 3.94863 11.2827 4.4206 10.9917 4.71152C10.7059 4.99738 10.2467 5.00085 9.95459 4.72544L14.3498 9.12061L16.5834 7.13821L12.7603 3.32141Z" fill="#FF1843" fill-opacity="0.2"/>
<path d="M18.4149 14.4003L16.7991 14.6689C16.6685 14.6906 16.5391 14.6246 16.4799 14.5062L15.7476 13.0412C15.5292 12.6043 14.8785 12.7075 14.8058 13.1903L14.5622 14.81C14.5425 14.9409 14.4397 15.0437 14.3088 15.0633L13.5343 15.18L12.7337 15.3254C12.2507 15.398 12.4638 15.9358 12.9007 16.1541L14.119 16.8901C14.2375 16.9493 14.382 17.18 14.3602 17.3107L13.9799 18.8692C13.8997 19.3509 14.2124 19.3841 14.5551 19.0362L15.7982 17.9972C15.8911 17.9028 16.358 17.8155 16.4754 17.8766L17.7 18.7672C18.1334 18.9921 18.2405 18.6902 18.0154 18.2569L18.0595 17.5903L17.6246 16.7529C17.5636 16.6353 17.5863 16.4918 17.6806 16.399L18.8477 15.2497C19.1958 14.9072 18.8967 14.3201 18.4149 14.4003Z" fill="#FF1843" fill-opacity="0.8"/>
<path d="M13.4202 14.2221C13.3431 14.2221 13.2659 14.1927 13.207 14.1338L0.0883857 1.01521C-0.0294619 0.897359 -0.0294619 0.706455 0.0883857 0.588752C0.206233 0.470904 0.396993 0.470904 0.514841 0.588752L13.6335 13.7074C13.7513 13.8252 13.7513 14.016 13.6335 14.1338C13.5746 14.1927 13.4974 14.2221 13.4202 14.2221Z" fill="#FF1843" fill-opacity="0.6"/>
<path d="M13.872 12.2622C13.7949 12.2622 13.7177 12.2327 13.6588 12.1737L5.66689 4.18196C5.54919 4.06411 5.54919 3.87335 5.66689 3.7555C5.78474 3.63765 5.97564 3.63765 6.09335 3.7555L14.0853 11.7474C14.2031 11.8651 14.2031 12.056 14.0853 12.1737C14.0264 12.2327 13.9492 12.2622 13.872 12.2622Z" fill="#FF1843" fill-opacity="0.6"/>
<path d="M13.5703 6.53201C13.4932 6.53201 13.4161 6.50258 13.3571 6.44373L7.92872 1.01533C7.81087 0.897482 7.81087 0.706577 7.92872 0.588874C8.04657 0.471026 8.23733 0.471026 8.35517 0.588874L13.7836 6.01728C13.9014 6.13512 13.9014 6.32588 13.7836 6.44373C13.7247 6.50258 13.6476 6.53201 13.5703 6.53201Z" fill="#FF1843" fill-opacity="0.6"/>
<path d="M14.0233 4.87341C13.9462 4.87341 13.8689 4.84398 13.8101 4.78513L12.1514 3.12641C12.0335 3.00857 12.0335 2.81781 12.1514 2.69996C12.2692 2.58211 12.46 2.58211 12.5778 2.69996L14.2365 4.35867C14.3544 4.47652 14.3544 4.66728 14.2365 4.78513C14.1777 4.84398 14.1004 4.87341 14.0233 4.87341Z" fill="#FF1843" fill-opacity="0.6"/>
<path d="M12.0628 7.13514C11.9856 7.13514 11.9084 7.10572 11.8495 7.04686L9.13526 4.33259C9.01741 4.21474 9.01741 4.02398 9.13526 3.90614C9.25311 3.78829 9.44387 3.78829 9.56172 3.90614L12.276 6.62041C12.3938 6.73826 12.3938 6.92902 12.276 7.04686C12.217 7.10572 12.1399 7.13514 12.0628 7.13514Z" fill="#FF1843" fill-opacity="0.6"/>
<path d="M10.5002 16.086L9.37996 16.2722L8.87219 15.2565C8.73897 14.99 8.3418 15.0529 8.29744 15.3476L8.12857 16.4704L7.73415 16.5298L7.05634 16.692C6.76165 16.7364 6.80209 17.0227 7.06866 17.1559L8.03971 17.7187L7.86649 18.8011C7.81764 19.0951 8.01 19.168 8.21902 18.9558L9.03541 18.2382L10.0869 18.7146C10.3513 18.8518 10.5087 18.7069 10.3713 18.4423L10.2513 17.9714L9.95514 17.4013L10.7643 16.6045C10.9766 16.3953 10.7941 16.0371 10.5002 16.086Z" fill="#FF1843" fill-opacity="0.8"/>
<path d="M11.4598 14.6747C11.3825 14.6747 11.3054 14.6453 11.2465 14.5864L6.11964 9.45954C6.00179 9.3417 6.00179 9.15094 6.11964 9.03309C6.23748 8.91524 6.42824 8.91524 6.54609 9.03309L11.673 14.16C11.7907 14.2777 11.7907 14.4686 11.673 14.5864C11.614 14.6453 11.5369 14.6747 11.4598 14.6747Z" fill="#FF1843" fill-opacity="0.6"/>
<path d="M18.0596 17.5902C17.7793 17.6536 17.4889 17.6903 17.1893 17.6903C15.5217 17.6903 14.101 16.6474 13.5344 15.1796L12.689 15.3068C12.2062 15.3795 12.1031 16.0303 12.5399 16.2486L14.0051 16.9809C14.1234 17.0401 14.1895 17.1696 14.1677 17.3001L13.899 18.916C13.819 19.3977 14.406 19.6968 14.7486 19.3489L15.8978 18.1817C15.9907 18.0873 16.1342 18.0647 16.2517 18.1256L17.7055 18.8805C18.1387 19.1056 18.6046 18.6398 18.3797 18.2064L18.0596 17.5902Z" fill="#FF1843"/>
<path d="M10.4783 18.409L10.2512 17.9715C10.1528 17.9837 10.0533 17.9921 9.95158 17.9921C8.95675 17.9921 8.10297 17.3895 7.73406 16.5298L7.00552 16.6395C6.71083 16.6837 6.64792 17.0809 6.91449 17.2141L7.93019 17.7219L7.74392 18.8421C7.69507 19.1361 8.05325 19.3186 8.26242 19.1062L9.05909 18.2971L10.067 18.8204C10.3314 18.9578 10.6158 18.6734 10.4783 18.409Z" fill="#FF1843"/>
<path d="M16.8963 6.83943L15.7761 7.02569L15.2683 6.01C15.1351 5.74342 14.7381 5.80619 14.6937 6.10103L14.5247 7.22385L14.1303 7.28313L13.4422 7.43055C13.1475 7.47491 13.1663 7.7983 13.4329 7.93151L14.4163 8.44175L14.2215 9.57356C14.1726 9.86753 14.4021 9.9529 14.6111 9.74055L15.3811 8.92416L16.4294 9.48079C16.6939 9.6182 16.9286 9.42991 16.7912 9.16537L16.6476 8.72514L16.3513 8.1546L17.1604 7.35778C17.3728 7.14876 17.1903 6.79043 16.8963 6.83943Z" fill="#FF1843" fill-opacity="0.8"/>
<path d="M16.8743 9.16225L16.6472 8.72492C16.5489 8.7371 16.4493 8.74536 16.3476 8.74536C15.3528 8.74536 14.499 8.14293 14.1301 7.2832L13.4015 7.39279C13.1068 7.43714 13.0439 7.83432 13.3105 7.96753L14.3262 8.47531L14.1399 9.59552C14.0911 9.88949 14.4494 10.072 14.6584 9.85962L15.4552 9.05049L16.463 9.57377C16.7274 9.71105 17.0118 9.42679 16.8743 9.16225Z" fill="#FF1843"/>
<path d="M7.17337 15.7545C7.09611 15.7545 7.019 15.7251 6.96015 15.6663L1.53175 10.2379C1.4139 10.12 1.4139 9.92926 1.53175 9.81141C1.64945 9.69356 1.84035 9.69356 1.95806 9.81141L7.3866 15.2398C7.50431 15.3577 7.50431 15.5484 7.3866 15.6663C7.32761 15.7251 7.25049 15.7545 7.17337 15.7545Z" fill="#FF1843" fill-opacity="0.6"/>
<path d="M7.62571 14.0961C7.54859 14.0961 7.47148 14.0665 7.41248 14.0077L5.75391 12.349C5.63607 12.2313 5.63607 12.0404 5.75391 11.9225C5.87162 11.8048 6.06252 11.8048 6.18037 11.9225L7.83894 13.5812C7.95679 13.6991 7.95679 13.8898 7.83894 14.0077C7.78009 14.0667 7.70297 14.0961 7.62571 14.0961Z" fill="#FF1843" fill-opacity="0.6"/>
<path d="M5.66564 16.358C5.58853 16.358 5.51127 16.3284 5.45242 16.2695L2.73829 13.5553C2.62044 13.4376 2.62044 13.2467 2.73829 13.1288C2.85599 13.0111 3.0469 13.0111 3.16474 13.1288L5.87887 15.8431C5.99672 15.9609 5.99672 16.1517 5.87887 16.2695C5.82002 16.3284 5.74276 16.358 5.66564 16.358Z" fill="#FF1843" fill-opacity="0.6"/>
</svg>
